<?xml version="1.0" encoding="utf-8"?>
<!-- Generator: Adobe Illustrator 22.1.0, SVG Export Plug-In . SVG Version: 6.00 Build 0)  -->
<svg version="1.1" id="Capa_1" xmlns="http://www.w3.org/2000/svg" xmlns:xlink="http://www.w3.org/1999/xlink" x="0px" y="0px"
	 viewBox="0 0 300 300" style="enable-background:new 0 0 300 300;" xml:space="preserve">
<path d="M0.3,37.5c0.2-0.6,0.5-1.2,0.6-1.9c2.9-13.4,14.5-23.2,28.2-23.3c31.3-0.1,62.7-0.1,94,0c4,0,6.6,2.4,6.6,5.9
	c0,3.5-2.7,5.8-6.7,5.8c-30.6,0-61.1,0-91.7,0c-12.3,0-19.4,7.1-19.4,19.5c0,44.4,0,88.9,0,133.3c0,1.1,0,2.1,0,3.4
	c53.5,0,106.8,0,160.4,0c0-8.2,0-16.3,0-24.9c-1.7,0-3.4,0-5.1,0c-4.1-0.1-6.4-2.3-6.4-6.3c-0.1-10.6-0.1-21.3,0-31.9
	c0-3.9,2.3-6.2,6.2-6.2c10.6-0.1,21.3-0.1,31.9,0c4,0,6.3,2.4,6.3,6.5c0,10.5,0,21.1,0,31.6c0,3.1-1.5,5.2-4.7,6.4
	c0.9,0.6,1.5,1,2.1,1.4c13.1,7.6,26.2,15.1,39.3,22.7c1,0.6,2.2,1.1,3.2,1.1c14,0.1,27.9,0,41.9,0c0.4,0,0.7-0.1,1.4-0.2
	c0-1.1,0-2.2,0-3.2c0-44.6,0-89.2,0-133.9c0-11.9-7.3-19.1-19.2-19.1c-30.1,0-60.1,0-90.2,0c-1.1,0-2.2,0.1-3.2-0.1
	c-3-0.4-5.2-2.9-5.1-5.8c0-2.9,2.2-5.4,5.2-5.8c1-0.1,1.9-0.1,2.9-0.1c30.1,0,60.1,0,90.2,0c18.6,0,31.1,12.4,31.1,31
	c0,53.6,0,107.2,0,160.8c0,18.4-12.5,30.9-30.9,30.9c-3.5,0-7,0-10.9,0c0.6,1.2,1,2,1.4,2.8c2.7,4.7,5.4,9.3,8,13.9
	c1.9,3.4,1.3,6.6-1.8,8.4c-11.9,7-23.8,13.8-35.7,20.6c-3.3,1.9-6.3,0.6-8.5-3.2c-7.1-12.2-14.1-24.5-21.2-36.7
	c-0.5-0.9-1.1-1.8-1.9-3.1c-4.8,4.7-9.4,9.3-14,13.9c-0.4,0.4-0.6,1-0.6,1.6c0,7.9,0,15.8,0,24c4.5,0,8.8,0,13,0
	c4.4,0,6.9,2.1,7,5.7c0.1,3.8-2.5,6-7.1,6c-31.3,0-62.7,0-94,0c-4.4,0-6.9-2.1-6.9-5.8c0-3.7,2.5-5.9,6.8-5.9c4.3,0,8.6,0,13,0
	c0-14.1,0-28,0-42.2c-1.2,0-2.4,0-3.5,0c-26.8,0-53.5,0-80.3,0c-17.2,0-27.5-8-31.7-24.8c0-0.2-0.2-0.3-0.4-0.4
	C0.3,152.3,0.3,94.9,0.3,37.5z M172.5,192.4c-53.6,0-107,0-160.4,0c0,4,0,7.8,0,11.6c0,12.1,7.2,19.3,19.3,19.3c46,0,92,0,137.9,0
	c1,0,2.1,0,3.2,0C172.5,212.8,172.5,202.7,172.5,192.4z M184.6,159.7c0,25.5,0,50.4,0,75.4c0.4-0.2,0.6-0.3,0.7-0.4
	c3.2-3.1,6.4-6.3,9.6-9.5c4.4-4.3,8.2-3.9,11.3,1.5c7.3,12.7,14.6,25.3,22,38c0.5,0.9,1.1,1.8,1.8,2.9c8.6-5,16.9-9.8,25.4-14.7
	c-8-13.9-15.8-27.4-23.6-40.9c-3.1-5.4-1.7-8.8,4.3-10.5c4.5-1.3,9-2.5,14.3-4C228,184.8,206.4,172.3,184.6,159.7z M128.3,235.1
	c0,14.1,0,28,0,41.8c14.9,0,29.6,0,44.2,0c0-14.1,0-27.9,0-41.8C157.7,235.1,143.1,235.1,128.3,235.1z M264.7,192.3
	c1.6,1,2.6,1.6,3.6,2.3c2,1.4,3,3.3,2.7,5.7c-0.3,2.5-1.8,4.1-4.1,4.8c-1.3,0.4-2.6,0.8-3.9,1.1c-6,1.7-11.9,3.3-18.3,5.1
	c2.2,3.9,4.2,7.5,6.4,10.9c0.4,0.6,1.6,1,2.4,1c5.9,0.1,11.9,0.1,17.9,0c8.2-0.2,15.4-5.7,16.6-13.8c0.8-5.6,0.2-11.4,0.2-17.2
	C280.6,192.3,273,192.3,264.7,192.3z M172.7,143.4c7.1,0,13.9,0,20.8,0c0-7,0-13.9,0-20.8c-7,0-13.9,0-20.8,0
	C172.7,129.6,172.7,136.4,172.7,143.4z"/>
<path d="M139.8,133c0,5.1,0,10.1,0,15.2c0,4.8-2.2,7-6.9,7.1c-10.2,0-20.5,0-30.7,0c-4.8,0-6.9-2.2-6.9-7c0-10.1,0-20.3,0-30.4
	c0-5,2.1-7,7.2-7.1c10,0,20.1,0,30.1,0c5.2,0,7.2,2.1,7.2,7.3C139.8,123.1,139.8,128,139.8,133z M107.1,143.3c7.2,0,14,0,20.8,0
	c0-7,0-13.8,0-20.7c-7,0-13.9,0-20.8,0C107.1,129.6,107.1,136.4,107.1,143.3z"/>
<path d="M271,67.4c0,12.3-10.1,22.3-22.5,22.2c-12.1-0.1-22.1-10.1-22.1-22.3c0-12.3,10.1-22.3,22.5-22.2
	C261.1,45.2,271.1,55.2,271,67.4z M248.9,56.8c-5.8-0.1-10.6,4.7-10.7,10.5c0,5.7,4.6,10.5,10.3,10.6c5.8,0.1,10.7-4.5,10.8-10.3
	C259.4,61.7,254.7,56.9,248.9,56.8z"/>
<path d="M74.2,67.4c0,12.3-10.1,22.3-22.4,22.2c-12.2-0.1-22.1-10.1-22.1-22.3c0-12.3,10.1-22.3,22.4-22.2
	C64.2,45.2,74.2,55.2,74.2,67.4z M62.4,67.3c-0.1-5.8-4.9-10.5-10.7-10.4c-5.7,0.1-10.3,4.8-10.3,10.5c0,5.8,4.8,10.6,10.6,10.6
	C57.8,77.9,62.5,73.1,62.4,67.3z"/>
<path d="M139.8,67.3c0,12.3-10,22.4-22.3,22.3c-12.2,0-22.2-10-22.2-22.2c0-12.3,10-22.4,22.3-22.3
	C129.8,45.2,139.7,55.1,139.8,67.3z M128.1,67.4c0-5.8-4.8-10.6-10.6-10.5c-5.7,0-10.4,4.7-10.5,10.4c-0.1,5.8,4.6,10.7,10.5,10.7
	C123.3,78,128.1,73.2,128.1,67.4z"/>
<path d="M183.1,45.1c12.3,0,22.4,10,22.3,22.3c0,12.2-10,22.1-22.2,22.2c-12.3,0-22.4-10-22.3-22.3
	C160.9,55.1,170.9,45.2,183.1,45.1z M193.7,67.5c0.1-5.8-4.7-10.6-10.5-10.7c-5.7,0-10.5,4.6-10.6,10.3c-0.1,5.8,4.5,10.7,10.3,10.8
	C188.8,78,193.6,73.3,193.7,67.5z"/>
<path d="M74.2,133.2c-0.1,12.3-10.3,22.2-22.6,22c-12.1-0.2-22-10.3-21.9-22.5c0.1-12.3,10.3-22.2,22.6-22
	C64.4,110.9,74.2,121,74.2,133.2z M62.4,133c0-5.8-4.8-10.6-10.7-10.5c-5.7,0.1-10.4,4.7-10.4,10.4c-0.1,5.8,4.7,10.6,10.5,10.6
	C57.7,143.6,62.5,138.8,62.4,133z"/>
<path d="M248.8,110.8c12.3,0,22.3,10.1,22.2,22.5c-0.1,12.2-10.1,22.1-22.3,22c-12.3,0-22.3-10.1-22.2-22.5
	C226.6,120.7,236.7,110.7,248.8,110.8z M259.3,132.9c-0.1-5.8-4.9-10.5-10.7-10.4c-5.7,0.1-10.3,4.8-10.4,10.5
	c0,5.8,4.7,10.6,10.6,10.6C254.6,143.5,259.4,138.7,259.3,132.9z"/>
<path d="M150.2,12.4c3.1-0.1,5.8,2.6,5.9,5.7c0.1,3.2-2.4,5.8-5.6,6c-3.3,0.1-6.1-2.5-6.1-5.8C144.5,15.2,147.1,12.5,150.2,12.4z"/>
</svg>
