<?xml version="1.0" encoding="utf-8"?>
<!-- Generator: Adobe Illustrator 22.1.0, SVG Export Plug-In . SVG Version: 6.00 Build 0)  -->
<svg version="1.1" id="Capa_1" xmlns="http://www.w3.org/2000/svg" xmlns:xlink="http://www.w3.org/1999/xlink" x="0px" y="0px"
	 viewBox="0 0 300 300" style="enable-background:new 0 0 300 300;" xml:space="preserve">
<path d="M0.6,287.6c0-77.7,0-155.5,0-233.2C4.9,43.6,8.8,41,20.5,41c23.3,0,46.7,0,70,0.1c2.3,0,3.2-0.8,4.3-2.8
	c3-5.6,6.4-11.1,9.9-16.5c1.4-2.2,4-2.2,5.9-0.7c2.1,1.6,2.4,3.8,0.8,6.2c-0.5,0.7-1.1,1.4-1.6,2.1C98,45.5,95.4,63,103.3,81.3
	c8,18.4,22.6,28.9,42.6,30.9c33.1,3.2,60.1-25.3,55.7-58.4c-3.9-29.4-32.2-49.5-61.3-43.5c-4.4,0.9-8.7,2.8-13,4.4
	c-2.7,1-4.8,0.3-5.9-2c-1.1-2.3-0.3-4.5,2.1-5.9c1.3-0.7,2.6-1.4,4-1.8c5.7-1.6,11.4-3.1,17.1-4.6c3.9,0,7.8,0,11.7,0
	c0.5,0.2,1.1,0.4,1.6,0.5c23,3.5,39.1,16,48.4,37.3c0.9,2.1,1.9,2.8,4.2,2.8c24.2-0.1,48.4-0.1,72.6,0c8.6,0,14.1,4.1,16.7,12.3
	c0.1,0.4,0.3,0.7,0.5,1c0,77.7,0,155.5,0,233.2c-3.3,9.9-10.4,13-20.5,13c-86.8-0.2-173.6-0.1-260.4-0.1c-1.2,0-2.3,0-3.5,0
	c-5.5-0.3-9.9-2.8-12.9-7.4C2.1,291.4,1.4,289.4,0.6,287.6z M291.8,98.7c-1.1-0.1-1.7-0.1-2.4-0.1c-29.8,0-59.6-0.1-89.3,0
	c-1.3,0-3,0.9-3.9,1.9c-24.7,27.6-66.4,27.8-91,0.2c-1.3-1.5-2.6-2-4.5-2c-29.4,0.1-58.8,0-88.2,0c-1,0-2,0.1-3.2,0.2
	c0,1.5,0,2.6,0,3.8c0,59.7,0,119.5,0,179.2c0,7.4,2.4,9.8,9.8,9.8c87.7,0,175.3,0,263,0c7.2,0,9.7-2.5,9.7-9.6
	c0-59.9,0-119.9,0-179.8C291.8,101.1,291.8,100.1,291.8,98.7z M291.8,89.7c0-1.1,0-2.1,0-3c0-9.2,0-18.3,0-27.5
	c0-6.7-2.6-9.3-9.4-9.3c-22.9,0-45.9,0-68.8,0c-1.1,0-2.1,0-3.5,0c2.2,14.1,0.2,27.2-6.3,39.9C233.3,89.7,262.4,89.7,291.8,89.7z
	 M97.5,89.7C90.8,77,88.9,63.8,91,50c-0.8-0.1-1.2-0.2-1.6-0.2c-24,0-48,0-72,0c-5.2,0-8,3-8,8.3c0,9.7,0,19.3,0,29
	c0,0.8,0.1,1.7,0.2,2.6C38.8,89.7,67.9,89.7,97.5,89.7z"/>
<path d="M150.3,94.2c-4.7,0-9.4,0-14.1,0c-6.1-0.1-10.3-4.2-10.4-10.3c-0.1-7.5-0.1-15,0-22.6c0-4.7,2.5-8.3,7-9.7
	c1.7-0.5,2.1-1.3,2.1-2.9c0-3.6-0.1-7.3,0.4-10.8c1.1-7.4,7.7-12.8,15.2-12.9c7.5,0,14.2,5.4,15.3,12.8c0.5,3.5,0.4,7.2,0.4,10.8
	c0,1.5,0.2,2.4,1.9,2.9c4.7,1.5,7.1,5,7.1,9.9c0.1,7.4,0.1,14.8,0,22.3c-0.1,6.2-4.3,10.3-10.6,10.4
	C159.9,94.3,155.1,94.2,150.3,94.2z M150.6,85.5c4.2,0,8.4-0.1,12.6,0c2.5,0.1,3.5-0.6,3.4-3.3c-0.2-6.4-0.1-12.9,0-19.3
	c0-2.2-0.6-3.2-3-3.2c-8.7,0.1-17.4,0.1-26.1,0c-2.1,0-3,0.6-3,2.9c0.1,6.6,0.1,13.3,0,19.9c0,2.4,0.9,3,3.1,3
	C142,85.4,146.3,85.5,150.6,85.5z M157.2,50.9c0-4.1,0.3-7.9-0.1-11.6c-0.3-3.1-2.9-4.9-6.2-5c-3.5-0.1-6.5,1.6-6.8,4.7
	c-0.4,3.9-0.1,7.9-0.1,11.9C148.4,50.9,152.7,50.9,157.2,50.9z"/>
<path d="M150.3,263.2c-30.6,0-61.1,0-91.7,0c-9.2,0-16.9-2.9-21.8-11.1c-8.4-13.8-2.7-32.7,11.7-37.8c3.2-1.1,6.7-1.6,10-1.6
	c61.4-0.1,122.8-0.1,184.3,0c11.6,0,19.5,5.1,23.4,14.7c4.1,10.2,1.9,22.2-5.4,29.4c-3.8,3.7-8.3,5.7-13.6,6.2
	c-1.9,0.2-3.9,0.2-5.9,0.2C211,263.2,180.7,263.2,150.3,263.2z M150.3,254.4c30.4,0,60.7,0,91.1,0c1.5,0,2.9,0,4.4-0.1
	c7.5-0.6,13.1-6.2,13.9-13.9c0.9-8.9-3.3-16.1-10.9-18.2c-2.4-0.6-5-0.8-7.5-0.8c-60.4,0-120.8,0-181.2,0c-1.8,0-3.7,0.1-5.5,0.4
	c-6.2,0.9-10.3,4.6-12.1,10.4c-3.2,10.1,2.1,22.3,16,22.2C89,254.3,119.6,254.4,150.3,254.4z"/>
<path d="M150.7,146.4c30.7,0,61.3,0,92,0c10,0,18.1,3.5,22.6,12.8c4.8,9.8,4.1,19.5-2.2,28.6c-4,5.7-9.8,8.6-16.7,9
	c-5.7,0.3-11.5,0.2-17.3,0.1c-3,0-4.7-1.7-4.7-4.4c0-2.7,1.7-4.3,4.8-4.3c4.7-0.1,9.4-0.1,14.1,0c15.6,0.3,19.7-16.1,14-25.5
	c-2.8-4.7-7-6.9-12.3-7.4c-0.8-0.1-1.6,0-2.3,0c-61.4,0-122.8,0-184.3,0c-8.5,0-14.2,3.8-16.3,11.1c-2.9,9.9,2.4,22,16.5,21.9
	c47.9-0.3,95.9-0.1,143.8-0.1c1.1,0,2.2-0.1,3.2,0.1c2.5,0.4,3.8,2,3.7,4.5c-0.1,2.5-1.4,4-4,4.1c-0.9,0-1.8,0-2.6,0
	c-47.8,0-95.5,0-143.3,0c-4.9,0-9.7-0.4-14.2-2.8c-9.5-5.1-14.4-17.2-11.7-28.8c2.7-11.3,11.2-18.6,22.7-18.8
	c11.2-0.2,22.5-0.1,33.7-0.1C110.3,146.4,130.5,146.4,150.7,146.4z"/>
<path d="M150.6,167.4c25.5,0,51,0,76.5,0c1.1,0,2.2-0.1,3.2,0.1c2.1,0.3,3.3,1.6,3.6,3.6c0.3,2.2-0.6,3.9-2.7,4.6
	c-1.2,0.4-2.5,0.4-3.7,0.4c-51.2,0-102.3,0-153.5,0c-1.3,0-2.6,0-3.8-0.4c-2.2-0.7-2.9-2.5-2.7-4.6c0.2-2.1,1.4-3.4,3.5-3.7
	c1.1-0.1,2.1-0.1,3.2-0.1C99.6,167.4,125.1,167.4,150.6,167.4z"/>
<path d="M154.7,72.6c0,2.5-1.7,4.4-4.1,4.4c-2.5,0.1-4.3-1.9-4.3-4.5c0.1-2.6,1.7-4.2,4.2-4.2C153.1,68.4,154.7,70.1,154.7,72.6z"/>
<path d="M98.4,237.9c0.1,2.4-1.7,4.4-4,4.5c-2.5,0.1-4.4-1.8-4.4-4.4c0-2.5,1.7-4.3,4.2-4.3C96.5,233.6,98.3,235.4,98.4,237.9z"/>
<path d="M211.2,237.9c0,2.5-1.7,4.4-4.1,4.5c-2.5,0.1-4.4-1.9-4.4-4.5c0-2.5,1.8-4.3,4.2-4.3C209.5,233.7,211.2,235.4,211.2,237.9z"
	/>
<path d="M71.5,242.4c-2.4,0-4.1-1.9-4.2-4.3c0-2.6,1.8-4.5,4.4-4.4c2.4,0.1,4,1.9,4,4.4C75.7,240.6,73.9,242.4,71.5,242.4z"/>
<path d="M116.8,233.7c2.4,0,4.1,1.8,4.1,4.4c0,2.5-1.7,4.3-4.1,4.4c-2.5,0-4.3-2-4.2-4.6C112.6,235.3,114.4,233.6,116.8,233.7z"/>
<path d="M143.5,238.1c0,2.4-1.9,4.3-4.2,4.3c-2.5,0-4.3-1.9-4.2-4.6c0.1-2.5,1.8-4.2,4.3-4.1C141.8,233.7,143.6,235.6,143.5,238.1z"
	/>
<path d="M166,238c0,2.5-1.7,4.4-4.1,4.4c-2.5,0.1-4.4-1.9-4.3-4.5c0-2.5,1.8-4.3,4.2-4.3C164.3,233.7,166,235.4,166,238z"/>
<path d="M184.5,242.4c-2.4,0-4.1-1.8-4.2-4.3c0-2.6,1.6-4.4,4-4.4c2.5-0.1,4.4,1.8,4.4,4.4C188.6,240.5,186.8,242.4,184.5,242.4z"/>
<path d="M233.8,238.1c-0.1,2.5-1.9,4.3-4.3,4.2c-2.5,0-4.2-2-4.1-4.7c0.1-2.5,1.9-4.2,4.4-4.1C232.2,233.8,233.9,235.6,233.8,238.1z
	"/>
</svg>
