<?xml version="1.0" encoding="utf-8"?>
<!-- Generator: Adobe Illustrator 22.1.0, SVG Export Plug-In . SVG Version: 6.00 Build 0)  -->
<svg version="1.1" id="Capa_1" xmlns="http://www.w3.org/2000/svg" xmlns:xlink="http://www.w3.org/1999/xlink" x="0px" y="0px"
	 viewBox="0 0 300 300" style="enable-background:new 0 0 300 300;" xml:space="preserve">
<path d="M0.3,179.2c1.3-5.7,2.1-11.5,3.9-17c6.6-20.1,20-35,37.6-46.4c16-10.3,33.5-16.1,52.4-17.6c2.9-0.2,3.7-1.2,4.1-4.1
	c2.3-19.3,11-35.6,24.9-49.1c18-17.5,39.8-26.9,64.7-28.8c33-2.5,62.2,7.1,86.5,29.7c17.4,16.2,26.7,36.3,25.9,60.4
	c-0.6,19.7-8.2,36.7-21.1,51.5c-1,1.2-1.9,2.8-2.1,4.3c-1.8,11.4,1.3,21.4,8.9,30.1c1,1.1,2,2.5,2.5,3.9c1.1,3.7-2,7.1-6.3,7.1
	c-14.7-0.2-28.1-4.8-39.4-14.2c-3.6-3-6.4-3.3-10.8-2.3c-8.7,2-17.6,3.1-26.5,4.4c-1.6,0.2-2.6,0.4-2.8,2.4
	c-2.5,23.4-13.7,42.1-31.7,56.6c-22.1,17.9-47.8,24.8-76,23c-10.3-0.7-20.3-2.3-30.1-5.5c-1.7-0.6-2.7,0.1-3.8,1.1
	c-11.9,10.4-25.8,15.9-41.6,16.4c-3,0.1-5.4-0.7-6.7-3.6c-1.3-2.8,0-5,1.9-7.1c7.8-8.5,10.9-18.5,9.3-29.9c-0.2-1.5-0.9-3.2-1.9-4.4
	c-11.6-13.3-19-28.5-20.9-46.1c-0.1-0.7-0.3-1.3-0.5-2C0.3,187.8,0.3,183.5,0.3,179.2z M30.7,271.8c0.9-0.2,1.3-0.2,1.6-0.3
	c9.2-2.6,17.2-7.4,23.8-14.3c2.2-2.3,4.6-3.2,7.6-2.1c10.5,3.9,21.4,5.9,32.6,6.5c26.9,1.5,51.1-5.6,71.3-23.9
	c30.6-27.9,31.9-72.3,2.9-101.3c-16.2-16.2-36.1-24.7-58.8-26.4c-29.8-2.2-56.2,6.3-77.9,27.2c-13.6,13.1-21.6,29.1-21.6,48.4
	C12,203.8,19,219.4,31.1,233c1.8,2,3.1,4.7,3.7,7.3C37.3,251.1,35.6,261.5,30.7,271.8z M270,189.8c-0.4-1-0.7-1.6-0.9-2.2
	c-4.2-9.5-5.5-19.3-3.1-29.4c0.6-2.5,1.9-5.2,3.6-7.1c11.5-12.9,18.5-27.8,19-45.2c0.7-20.3-7.5-37-21.7-51
	c-27.3-27-71.6-35.2-107.4-20.1c-21.1,8.9-37.1,23.2-45.7,44.9c-2.3,5.7-3.8,11.6-4,18c1.2,0.2,2.1,0.4,3.1,0.4
	c13.3,1,25.9,4.4,38,10c1.6,0.7,3.5,1.2,5.3,1.2c29.7,0.1,59.4,0,89,0.1c1.1,0,2.2-0.1,3.2,0.1c3,0.4,5.1,2.9,5.1,5.8
	c0,2.8-2.1,5.2-5,5.7c-1.1,0.2-2.1,0.1-3.2,0.1c-23.4,0-46.9,0-70.3,0c-1,0-2,0-3.7,0c18.4,15.7,29.4,34.7,31.6,58.4
	c11-0.6,21.6-2.1,31.7-5.8c4.7-1.8,7.9-1,11.4,2.6C252.5,183.1,260.5,187.4,270,189.8z"/>
<path d="M102,203.2c15.8,0,31.6,0,47.4,0c3.7,0,6.1,1.8,6.7,4.8c0.6,3.2-1.7,6.3-5,6.8c-1,0.1-1.9,0.1-2.9,0.1c-31,0-62,0-93,0
	c-0.8,0-1.6,0-2.3,0c-3.3-0.3-5.7-2.8-5.6-6c0.1-3,2.4-5.5,5.6-5.6c3.6-0.1,7.2-0.1,10.8-0.1C76.5,203.2,89.2,203.2,102,203.2z"/>
<path d="M113.4,179.8c-11.9,0-23.8,0.1-35.7-0.1c-1.9,0-4-0.9-5.5-2c-1.8-1.4-2-3.7-1.1-5.9c1-2.3,2.7-3.5,5.2-3.6
	c2.3-0.1,4.7,0,7,0c21.5,0,42.9,0,64.4,0c0.9,0,1.8,0,2.6,0c3.4,0.2,5.8,2.6,5.9,5.7c0.1,3.2-2.4,5.9-5.9,5.9
	c-6.2,0.1-12.5,0-18.7,0C125.5,179.8,119.4,179.8,113.4,179.8z"/>
<path d="M58.9,173.8c0.1,3.2-2.6,6-5.9,6c-3.1,0-5.7-2.6-5.8-5.7c-0.1-3.2,2.6-6,5.9-6C56.2,168.1,58.8,170.7,58.9,173.8z"/>
<path d="M210.7,86c-11.9,0-23.8,0.1-35.7-0.1c-1.7,0-4-0.5-5-1.6c-1.2-1.4-1.9-3.8-1.7-5.7c0.2-2.4,2.2-3.8,4.6-4.2
	c0.9-0.2,1.7-0.1,2.6-0.1c23.4,0,46.8,0,70.2,0c0.5,0,1,0,1.5,0c3.7,0.1,6.3,2.6,6.2,6c-0.1,3.2-2.6,5.7-6.1,5.7
	c-5.1,0.1-10.1,0-15.2,0C225,86,217.9,86,210.7,86z"/>
<path d="M156.2,80.1c0,3.2-2.7,6-5.9,5.9c-3.1,0-5.7-2.6-5.8-5.8c-0.1-3.2,2.7-6,5.9-5.9C153.5,74.4,156.1,77,156.2,80.1z"/>
</svg>
