<?xml version="1.0" encoding="utf-8"?>
<!-- Generator: Adobe Illustrator 22.1.0, SVG Export Plug-In . SVG Version: 6.00 Build 0)  -->
<svg version="1.1" id="Capa_1" xmlns="http://www.w3.org/2000/svg" xmlns:xlink="http://www.w3.org/1999/xlink" x="0px" y="0px"
	 viewBox="0 0 300 300" style="enable-background:new 0 0 300 300;" xml:space="preserve">
<path d="M152.3,300.6c-50.6,0-101.2,0-151.8,0c0-85.5,0-171.1,0-256.6c1.6-2.7,4.1-3.5,7.1-3.5c23,0.1,46,0,69.1,0
	c1.2,0,2.3,0,3.8,0c0-1.3,0-2.4,0-3.4c0-9.9,0.1-19.7,0-29.6c0-3,0.7-5.3,3.2-7c22.9,0,45.7,0,68.6,0c2.7,1.7,3.3,4.2,3.3,7.2
	c-0.1,17.4,0,34.7,0,52.1c0,1,0.1,2,0.1,2.8c1.7-0.9,3.1-1.9,4.6-2.3c24.2-6.5,48.4-13,72.6-19.4c4.5-1.2,6.7,0.1,7.8,4.5
	c18,69,36,138,54,207c1.8,7,3.9,14,5.8,21c0,1.2,0,2.3,0,3.5c-1.3,2.4-3.6,3.3-6.1,4c-14.9,3.9-29.7,7.9-44.6,11.8
	c-9.3,2.5-18.6,5.1-27.8,7.6c-1,0-2,0-2.9,0c-2.5-1.3-3.4-3.5-4-6.1c-19.3-74.3-38.7-148.7-58.1-223c-0.2-0.8-0.5-1.6-0.7-2.4
	c-0.2,0.1-0.4,0.1-0.7,0.2c0,1.3,0,2.5,0,3.8c0,73.3,0,146.7,0,220C155.6,296.2,155.1,298.8,152.3,300.6z M145.4,65.8
	c-18.3,0-36.4,0-54.6,0c0,58.3,0,116.4,0,174.7c18.3,0,36.4,0,54.6,0C145.4,182.2,145.4,124.1,145.4,65.8z M10.8,75.7
	c0,50.1,0,99.9,0,149.7c23.3,0,46.4,0,69.7,0c0-50,0-99.8,0-149.7C57.2,75.7,34.1,75.7,10.8,75.7z M244.9,101
	c-22,5.9-43.6,11.6-65.3,17.4c9.7,37.3,19.4,74.2,29,111.2c22-5.9,43.5-11.6,65.3-17.4C264.2,175,254.6,138.2,244.9,101z
	 M80.4,260.9c-23.4,0-46.6,0-69.6,0c0,10,0,19.8,0,29.6c23.3,0,46.4,0,69.6,0C80.4,280.6,80.4,270.8,80.4,260.9z M172.1,90
	c22-5.9,43.6-11.6,65.4-17.4c-1.9-7.2-3.7-14-5.5-20.9c-22,5.9-43.5,11.6-65.3,17.4C168.5,76.2,170.3,82.8,172.1,90z M284,251.2
	c-21.9,5.8-43.5,11.6-65.3,17.4c1.9,7.1,3.6,13.9,5.5,20.9c22-5.9,43.6-11.6,65.3-17.4C287.6,264.9,285.9,258.2,284,251.2z
	 M211.1,239.3c1.7,6.7,3.4,13,5.1,19.6c21.9-5.8,43.5-11.6,65.3-17.4c-1.8-6.7-3.4-13.1-5.1-19.6
	C254.6,227.7,233.1,233.5,211.1,239.3z M90.8,30.4c18.4,0,36.4,0,54.6,0c0-6.6,0-13.1,0-19.6c-18.3,0-36.4,0-54.6,0
	C90.8,17.4,90.8,23.8,90.8,30.4z M145.4,270.8c-18.3,0-36.4,0-54.6,0c0,6.6,0,13.1,0,19.6c18.3,0,36.4,0,54.6,0
	C145.4,283.8,145.4,277.4,145.4,270.8z M80.4,65.5c0-4.9,0-9.8,0-14.7c-23.3,0-46.5,0-69.6,0c0,5,0,9.9,0,14.7
	C34.1,65.5,57.2,65.5,80.4,65.5z M10.7,250.5c23.3,0,46.4,0,69.6,0c0-5,0-9.9,0-14.8c-23.4,0-46.4,0-69.6,0
	C10.7,240.7,10.7,245.4,10.7,250.5z M145.4,40.7c-18.3,0-36.3,0-54.6,0c0,5,0,9.8,0,14.8c18.3,0,36.3,0,54.6,0
	C145.4,50.5,145.4,45.7,145.4,40.7z M177,108.7c21.8-5.8,43.4-11.6,65.3-17.4c-0.8-3.1-1.5-5.9-2.3-9c-21.9,5.8-43.6,11.6-65.3,17.4
	C175.5,102.8,176.2,105.6,177,108.7z M145.3,260.5c0-3.3,0-6.5,0-9.6c-18.3,0-36.4,0-54.5,0c0,3.3,0,6.4,0,9.6
	C109.1,260.5,127.1,260.5,145.3,260.5z"/>
<path d="M45.6,140.6c-6.2,0-12.5,0-18.7,0c-4.4,0-6.3-1.8-6.3-6.2c0-12.6,0-25.2,0-37.8c0-4.2,1.8-6,6.1-6c12.6,0,25.2,0,37.8,0
	c4.4,0,6.1,1.7,6.1,6c0,12.7,0,25.4,0,38.1c0,4.1-1.8,5.9-5.9,5.9C58.3,140.6,51.9,140.6,45.6,140.6z M30.7,130.4
	c10.1,0,19.8,0,29.6,0c0-10,0-19.8,0-29.6c-10,0-19.8,0-29.6,0C30.7,110.8,30.7,120.6,30.7,130.4z"/>
</svg>
